<svg width="70" height="70" viewBox="0 0 70 70" fill="none" xmlns="http://www.w3.org/2000/svg">
<path fill-rule="evenodd" clip-rule="evenodd" d="M4.51758 35H65.483L60.036 7.80612C59.7933 6.74936 58.8436 6 57.7498 6H12.2508C11.1569 6 10.2073 6.74936 9.9646 7.80612L4.51758 35Z" stroke="#900E0E" stroke-width="2" stroke-linecap="round"/>
<path fill-rule="evenodd" clip-rule="evenodd" d="M1 59.3599V61.6799C1 62.9617 2.04931 63.9999 3.34482 63.9999H11.275C12.1625 63.9999 12.975 63.5034 13.3725 62.7169L15.0689 59.3599H1Z" stroke="#900E0E" stroke-width="2" stroke-linecap="round"/>
<path fill-rule="evenodd" clip-rule="evenodd" d="M54.9307 59.3599L56.6271 62.7169C57.0246 63.5034 57.8371 63.9999 58.7246 63.9999H66.6548C67.9503 63.9999 68.9996 62.9617 68.9996 61.6799V59.3599H54.9307Z" stroke="#900E0E" stroke-width="2" stroke-linecap="round"/>
<path fill-rule="evenodd" clip-rule="evenodd" d="M1 59.36H68.9999V51.24H1V59.36Z" stroke="#900E0E" stroke-width="2" stroke-linecap="round"/>
<path fill-rule="evenodd" clip-rule="evenodd" d="M68.9999 51.24H1V37.32C1 36.0382 2.04931 35 3.34482 35H66.6551C67.9506 35 68.9999 36.0382 68.9999 37.32V51.24Z" stroke="#900E0E" stroke-width="2" stroke-linecap="round"/>
<path d="M1 40.8H5.68965" stroke="#900E0E" stroke-width="2" stroke-linecap="round" stroke-linejoin="round"/>
<path d="M1 45.4401H5.68965" stroke="#900E0E" stroke-width="2" stroke-linecap="round" stroke-linejoin="round"/>
<path d="M63.1377 40.8H68.9998" stroke="#900E0E" stroke-width="2" stroke-linecap="round" stroke-linejoin="round"/>
<path d="M63.1377 45.4401H68.9998" stroke="#900E0E" stroke-width="2" stroke-linecap="round" stroke-linejoin="round"/>
<path fill-rule="evenodd" clip-rule="evenodd" d="M1 59.3599V61.6799C1 62.9617 2.04931 63.9999 3.34482 63.9999H11.275C12.1625 63.9999 12.975 63.5034 13.3725 62.7169L15.0689 59.3599H1Z" stroke="#900E0E" stroke-width="2" stroke-linecap="round"/>
<path fill-rule="evenodd" clip-rule="evenodd" d="M9.20703 35.0001C9.20703 29.2337 14.9812 24.5601 22.1036 24.5601C29.226 24.5601 35.0001 29.2337 35.0001 35.0001H9.20703Z" stroke="#900E0E" stroke-width="2" stroke-linecap="round"/>
<path fill-rule="evenodd" clip-rule="evenodd" d="M35 35.0001C35 29.2337 40.7741 24.5601 47.8965 24.5601C55.0189 24.5601 60.7931 29.2337 60.7931 35.0001H35Z" stroke="#900E0E" stroke-width="2" stroke-linecap="round"/>
</svg>
