<svg width="40" height="40" viewBox="0 0 40 40" fill="none" xmlns="http://www.w3.org/2000/svg">
<circle cx="20" cy="20" r="19.5" stroke="#4F616B" stroke-opacity="0.1"/>
<path d="M26.9957 31.4511H12.9499C11.5888 31.4511 10.5 30.3448 10.5 28.9618V9.48937C10.5 8.10639 11.5888 7 12.9499 7H26.9957C28.3567 7 29.4456 8.10639 29.4456 9.48937V28.9618C29.4456 30.3448 28.3567 31.4511 26.9957 31.4511ZM12.9499 8.10639C12.1877 8.10639 11.5888 8.7149 11.5888 9.48937V28.9618C11.5888 29.7362 12.1877 30.3448 12.9499 30.3448H26.9957C27.7579 30.3448 28.3567 29.7362 28.3567 28.9618V9.48937C28.3567 8.7149 27.7579 8.10639 26.9957 8.10639H12.9499Z" fill="#4F616B"/>
<path d="M28.9011 16.6259H11.0444C10.7178 16.6259 10.5 16.4046 10.5 16.0727C10.5 15.7408 10.7178 15.5195 11.0444 15.5195H28.9556C29.2822 15.5195 29.5 15.7408 29.5 16.0727C29.5 16.4046 29.2278 16.6259 28.9011 16.6259Z" fill="#4F616B"/>
<path d="M13.5483 12.5869C13.2217 12.5869 13.0039 12.3656 13.0039 12.0337V11.0932C13.0039 10.7613 13.2217 10.54 13.5483 10.54C13.875 10.54 14.0927 10.7613 14.0927 11.0932V12.089C14.0927 12.3656 13.875 12.5869 13.5483 12.5869Z" fill="#4F616B"/>
<path d="M13.5483 20.276C13.2217 20.276 13.0039 20.0547 13.0039 19.7228V18.727C13.0039 18.3951 13.2217 18.1738 13.5483 18.1738C13.875 18.1738 14.0927 18.3951 14.0927 18.727V19.7228C14.0927 19.9994 13.875 20.276 13.5483 20.276Z" fill="#4F616B"/>
<path d="M13.9302 32.9991C13.6035 32.9991 13.3857 32.7778 13.3857 32.4459V30.8969C13.3857 30.565 13.6035 30.3438 13.9302 30.3438C14.2568 30.3438 14.4746 30.565 14.4746 30.8969V32.4459C14.4746 32.7778 14.2568 32.9991 13.9302 32.9991Z" fill="#4F616B"/>
<path d="M26.0161 32.9991C25.6894 32.9991 25.4717 32.7778 25.4717 32.4459V30.8969C25.4717 30.565 25.6894 30.3438 26.0161 30.3438C26.3427 30.3438 26.5605 30.565 26.5605 30.8969V32.4459C26.5605 32.7778 26.3427 32.9991 26.0161 32.9991Z" fill="#4F616B"/>
</svg>
