<svg width="20" height="20" viewBox="0 0 20 20" fill="none" xmlns="http://www.w3.org/2000/svg">
<path d="M13.5673 8.9324C13.6255 8.99045 13.6717 9.05942 13.7032 9.13535C13.7347 9.21129 13.7509 9.29269 13.7509 9.3749C13.7509 9.45711 13.7347 9.53851 13.7032 9.61444C13.6717 9.69037 13.6255 9.75934 13.5673 9.8174L9.81731 13.5674C9.75926 13.6256 9.69029 13.6718 9.61436 13.7033C9.53842 13.7348 9.45702 13.751 9.37481 13.751C9.2926 13.751 9.2112 13.7348 9.13527 13.7033C9.05934 13.6718 8.99037 13.6256 8.93231 13.5674L7.05731 11.6924C6.9992 11.6343 6.95311 11.5653 6.92166 11.4894C6.89021 11.4135 6.87402 11.3321 6.87402 11.2499C6.87402 11.1677 6.89021 11.0863 6.92166 11.0104C6.95311 10.9345 6.9992 10.8655 7.05731 10.8074C7.17467 10.69 7.33384 10.6241 7.49981 10.6241C7.58199 10.6241 7.66337 10.6403 7.73929 10.6717C7.81522 10.7032 7.8842 10.7493 7.94231 10.8074L9.37481 12.2411L12.6823 8.9324C12.7404 8.87419 12.8093 8.82801 12.8853 8.79651C12.9612 8.765 13.0426 8.74878 13.1248 8.74878C13.207 8.74878 13.2884 8.765 13.3644 8.79651C13.4403 8.82801 13.5093 8.87419 13.5673 8.9324Z" fill="white"/>
<path d="M4.375 0C4.54076 0 4.69973 0.065848 4.81694 0.183058C4.93415 0.300269 5 0.45924 5 0.625V1.25H15V0.625C15 0.45924 15.0658 0.300269 15.1831 0.183058C15.3003 0.065848 15.4592 0 15.625 0C15.7908 0 15.9497 0.065848 16.0669 0.183058C16.1842 0.300269 16.25 0.45924 16.25 0.625V1.25H17.5C18.163 1.25 18.7989 1.51339 19.2678 1.98223C19.7366 2.45107 20 3.08696 20 3.75V17.5C20 18.163 19.7366 18.7989 19.2678 19.2678C18.7989 19.7366 18.163 20 17.5 20H2.5C1.83696 20 1.20107 19.7366 0.732233 19.2678C0.263392 18.7989 0 18.163 0 17.5V3.75C0 3.08696 0.263392 2.45107 0.732233 1.98223C1.20107 1.51339 1.83696 1.25 2.5 1.25H3.75V0.625C3.75 0.45924 3.81585 0.300269 3.93306 0.183058C4.05027 0.065848 4.20924 0 4.375 0V0ZM1.25 5V17.5C1.25 17.8315 1.3817 18.1495 1.61612 18.3839C1.85054 18.6183 2.16848 18.75 2.5 18.75H17.5C17.8315 18.75 18.1495 18.6183 18.3839 18.3839C18.6183 18.1495 18.75 17.8315 18.75 17.5V5H1.25Z" fill="white"/>
</svg>
