<svg width="18" height="22" viewBox="0 0 18 22" fill="none" xmlns="http://www.w3.org/2000/svg">
<path d="M5.28993 10.6611H4.6819C3.32946 10.6611 2.23291 9.56712 2.23291 8.21979C2.23291 7.83962 1.92168 7.52995 1.54146 7.52995C1.16123 7.52995 0.85 7.83962 0.849987 8.21979L0.850013 8.2218C0.878164 10.3268 2.59499 12.0407 4.6819 12.0407H5.28993V20.9602C5.28993 21.3403 5.60117 21.65 5.98139 21.65C6.36161 21.65 6.67284 21.3403 6.67284 20.9602V16.4405H14.8342C15.2144 16.4405 15.5256 16.1308 15.5256 15.7506C15.5256 15.3705 15.2144 15.0608 14.8342 15.0608H6.69992V12.0407H13.3181C15.431 12.0407 17.15 10.3275 17.15 8.21979V4.17095C17.15 2.06327 15.431 0.35 13.3181 0.35H6.03553C5.69847 0.35 5.39603 0.608578 5.34814 0.943634C5.31804 1.01086 5.28993 1.10372 5.28993 1.2018V10.6611ZM6.69992 1.72969H13.3181C14.6705 1.72969 15.7671 2.82362 15.7671 4.17095V8.24679C15.7671 9.59412 14.6705 10.688 13.3181 10.688H6.69992V1.72969Z" fill="#900E0E" stroke="#900E0E" stroke-width="0.3"/>
</svg>
