<svg width="12" height="9" viewBox="0 0 12 9" fill="none" xmlns="http://www.w3.org/2000/svg">
<path d="M0.540732 0.660571C0.0809822 1.56432 0.602982 1.99632 1.79398 2.73432C2.80648 3.35982 4.20523 3.58857 5.10373 3.68007C4.73548 4.03407 6.42298 2.41107 1.56298 7.08582C0.532482 8.07357 2.19148 9.65832 3.22123 8.69157L6.00898 6.00282C7.07623 7.02957 8.09923 8.01357 8.79673 8.69532C9.82723 9.66582 11.4855 8.09457 10.4662 7.08957C10.3897 7.01682 6.68848 3.46632 6.91423 3.68382C7.82398 3.59232 9.20173 3.35007 10.2022 2.73807L10.2015 2.73732C11.3925 1.99557 11.9145 1.56432 11.4615 0.660571C11.1877 0.147571 10.4497 -0.281428 9.46723 0.460321C9.46723 0.460321 8.14048 1.47657 6.00073 1.47657C3.86023 1.47657 2.53423 0.460321 2.53423 0.460321C1.55248 -0.285178 0.811482 0.147571 0.540732 0.660571Z" fill="#50616B"/>
</svg>
