<svg width="26" height="26" viewBox="0 0 26 26" fill="none" xmlns="http://www.w3.org/2000/svg">
<circle cx="13" cy="13" r="12.5" stroke="black" stroke-opacity="0.1"/>
<path d="M11.9191 14.0268C12.7309 14.8503 13.7131 15.4861 14.7969 15.8896L16.263 14.7229C16.3064 14.693 16.358 14.677 16.4108 14.677C16.4635 14.677 16.5151 14.693 16.5585 14.7229L19.2808 16.4768C19.3841 16.5389 19.4716 16.6243 19.5363 16.726C19.601 16.8278 19.6412 16.9432 19.6536 17.0631C19.6661 17.1831 19.6505 17.3042 19.608 17.4171C19.5656 17.53 19.4975 17.6314 19.4091 17.7135L18.1335 18.9735C17.9509 19.154 17.7263 19.2864 17.48 19.359C17.2337 19.4316 16.9732 19.4421 16.7219 19.3896C14.2144 18.8717 11.9032 17.6588 10.0524 15.8896C8.24272 14.1027 6.99042 11.8291 6.44742 9.34459C6.39378 9.09711 6.40498 8.83998 6.47993 8.5981C6.55487 8.35623 6.69103 8.13782 6.8752 7.96403L8.19742 6.68848C8.27925 6.60439 8.37903 6.53991 8.4893 6.49986C8.59958 6.4598 8.71748 6.44521 8.83419 6.45718C8.95091 6.46915 9.0634 6.50737 9.16324 6.56898C9.26309 6.63058 9.34771 6.71398 9.41076 6.81292L11.223 9.50014C11.2542 9.54234 11.2711 9.59346 11.2711 9.64598C11.2711 9.69849 11.2542 9.74961 11.223 9.79181L10.0291 11.2268C10.4435 12.2888 11.0891 13.2453 11.9191 14.0268Z" fill="#50616B"/>
</svg>
