<svg width="70" height="70" viewBox="0 0 70 70" fill="none" xmlns="http://www.w3.org/2000/svg">
<path fill-rule="evenodd" clip-rule="evenodd" d="M1 40.8621H69V33.8276H1V40.8621Z" stroke="#900E0E" stroke-width="2" stroke-linecap="round" stroke-linejoin="round"/>
<path fill-rule="evenodd" clip-rule="evenodd" d="M25.2088 17.9976C23.6706 19.1008 21.7924 19.7585 19.7582 19.7585C17.7253 19.7585 15.8459 19.1008 14.3077 17.9976C11.9324 19.6987 10.3789 22.4762 10.3789 25.6206V33.8275H29.1375V25.6206C29.1375 22.4762 27.5841 19.6987 25.2088 17.9976Z" stroke="#900E0E" stroke-width="2" stroke-linecap="round" stroke-linejoin="round"/>
<path fill-rule="evenodd" clip-rule="evenodd" d="M26.7926 8.03448C26.7926 11.9199 23.6435 15.069 19.7581 15.069C15.8727 15.069 12.7236 11.9199 12.7236 8.03448C12.7236 4.1491 15.8727 1 19.7581 1C23.6435 1 26.7926 4.1491 26.7926 8.03448Z" stroke="#900E0E" stroke-width="2" stroke-linecap="round" stroke-linejoin="round"/>
<path fill-rule="evenodd" clip-rule="evenodd" d="M46.7246 30.3104H58.4487V25.6207H46.7246V30.3104Z" stroke="#900E0E" stroke-width="2" stroke-linecap="round" stroke-linejoin="round"/>
<path fill-rule="evenodd" clip-rule="evenodd" d="M59.6207 25.6207H45.5518C45.5518 21.7353 48.7009 18.5862 52.5862 18.5862C56.4716 18.5862 59.6207 21.7353 59.6207 25.6207Z" stroke="#900E0E" stroke-width="2" stroke-linecap="round" stroke-linejoin="round"/>
<path fill-rule="evenodd" clip-rule="evenodd" d="M45.5518 33.8275H59.6207V30.3103H45.5518V33.8275Z" stroke="#900E0E" stroke-width="2" stroke-linecap="round" stroke-linejoin="round"/>
<path fill-rule="evenodd" clip-rule="evenodd" d="M65.4822 69H4.5167C3.22119 69 2.17188 67.9507 2.17188 66.6552V40.8621H67.827V66.6552C67.827 67.9507 66.7777 69 65.4822 69Z" stroke="#900E0E" stroke-width="2" stroke-linecap="round" stroke-linejoin="round"/>
<path fill-rule="evenodd" clip-rule="evenodd" d="M19.7585 29.138L16.2412 23.2759L19.7585 19.7587L23.2757 23.2759L19.7585 29.138Z" stroke="#900E0E" stroke-width="2" stroke-linecap="round" stroke-linejoin="round"/>
<path fill-rule="evenodd" clip-rule="evenodd" d="M43.2069 54.9311C43.2069 49.7513 39.0073 45.5518 33.8276 45.5518C28.6478 45.5518 24.4482 49.7513 24.4482 54.9311C24.4482 60.1108 28.6478 64.3104 33.8276 64.3104C39.0073 64.3104 43.2069 60.1108 43.2069 54.9311Z" stroke="#900E0E" stroke-width="2" stroke-linecap="round" stroke-linejoin="round"/>
<path d="M33.8274 59.6207C31.241 59.6207 29.1377 57.5174 29.1377 54.931" stroke="#900E0E" stroke-width="2" stroke-linecap="round" stroke-linejoin="round"/>
<path d="M33.8271 50.2413C36.4135 50.2413 38.5168 52.3446 38.5168 54.931" stroke="#900E0E" stroke-width="2" stroke-linecap="round" stroke-linejoin="round"/>
<path d="M2.17188 64.3103H10.3788" stroke="#900E0E" stroke-width="2" stroke-linecap="round" stroke-linejoin="round"/>
<path d="M2.17188 59.6207H10.3788" stroke="#900E0E" stroke-width="2" stroke-linecap="round" stroke-linejoin="round"/>
<path d="M59.6201 64.3103H67.827" stroke="#900E0E" stroke-width="2" stroke-linecap="round" stroke-linejoin="round"/>
<path d="M59.6201 59.6207H67.827" stroke="#900E0E" stroke-width="2" stroke-linecap="round" stroke-linejoin="round"/>
</svg>
