<svg width="18" height="12" viewBox="0 0 18 12" fill="none" xmlns="http://www.w3.org/2000/svg">
<path fill-rule="evenodd" clip-rule="evenodd" d="M8.83383 11.9246H9.92517C9.92517 11.9246 10.2526 11.8611 10.4163 11.6708C10.58 11.4806 10.58 11.1 10.58 11.1C10.58 11.1 10.58 9.45085 11.2348 9.19714C11.8896 8.94342 12.7627 10.8463 13.6357 11.544C14.2906 12.1148 14.7817 11.988 14.7817 11.988L17.1826 11.9246C17.1826 11.9246 18.4377 11.8611 17.8374 10.656C17.7829 10.5926 17.51 9.83142 16.0367 8.24571C14.5088 6.59657 14.7271 6.91371 16.5278 4.05942C17.6192 2.34685 18.0557 1.332 17.9466 0.82457C17.8374 0.380571 17.0189 0.507428 17.0189 0.507428H14.2906C14.2906 0.507428 14.0723 0.443999 13.9632 0.570856C13.7994 0.697713 13.7449 0.887999 13.7449 0.887999C13.7449 0.887999 13.3083 2.22 12.7627 3.36171C11.5622 5.70857 11.0711 5.83542 10.9074 5.70857C10.4708 5.39142 10.58 4.31314 10.58 3.61542C10.58 1.332 10.9074 0.38057 9.97974 0.126856C9.70691 0.0634278 9.48864 0 8.7247 0C7.74249 0 6.92398 -2.45741e-07 6.48744 0.253714C6.16004 0.443999 5.94177 0.82457 6.10547 0.82457C6.26917 0.82457 6.70571 0.951428 6.92398 1.26857C7.14225 1.83943 7.14225 2.79085 7.14225 2.79085C7.14225 2.79085 7.30595 5.51828 6.76027 5.83542C6.3783 6.08914 5.8872 5.58171 4.79585 3.42514C4.25018 2.34685 3.81364 1.07828 3.81364 1.07828C3.81364 1.07828 3.75908 0.824571 3.59538 0.697714C3.43167 0.570857 3.15884 0.507428 3.15884 0.507428H0.594177C0.594177 0.507428 0.212206 0.507428 0.0485042 0.697714C-0.0606303 0.888 0.0485042 1.20514 0.0485042 1.20514C0.0485042 1.20514 2.06749 6.65999 4.35932 9.45085C6.48744 12.1148 8.83383 11.9246 8.83383 11.9246Z" fill="#50616B"/>
</svg>
