<svg width="25" height="22" viewBox="0 0 25 22" fill="none" xmlns="http://www.w3.org/2000/svg">
<path d="M9.36532 0L10.7198 1.31284C7.80444 4.78722 6.34675 7.82399 6.34675 10.4231C6.34675 11.4575 6.78535 12.7571 7.66254 14.3219C8.53973 15.8867 8.97833 17.1465 8.97833 18.1013C8.97833 19.2152 8.63003 20.1435 7.93344 20.8861C7.23684 21.6287 6.32095 22 5.18576 22C3.79257 22 2.57998 21.3502 1.54799 20.0506C0.515996 18.7511 0 17.0669 0 14.9982C0 12.4521 0.890093 9.95901 2.67028 7.51899C4.45046 5.05244 6.68215 2.54611 9.36532 0ZM23.6455 0L25 1.31284C22.0846 4.78722 20.6269 7.82399 20.6269 10.4231C20.6269 11.4575 21.0655 12.7571 21.9427 14.3219C22.8199 15.8867 23.2585 17.1465 23.2585 18.1013C23.2585 19.2152 22.9102 20.1435 22.2136 20.8861C21.517 21.6287 20.5882 22 19.4272 22C18.0341 22 16.8215 21.3502 15.7895 20.0506C14.7833 18.7245 14.2802 17.0404 14.2802 14.9982C14.2802 12.4786 15.1445 10.0121 16.8731 7.59855C18.6017 5.15853 20.8591 2.62568 23.6455 0Z" fill="#900E0E"/>
</svg>
