<svg width="40" height="40" viewBox="0 0 40 40" fill="none" xmlns="http://www.w3.org/2000/svg">
<path d="M18.8027 32.9998C15.8947 32.9998 13.5 30.6715 13.5 27.8441C13.5 25.0168 15.8947 22.6885 18.8027 22.6885C21.7106 22.6885 24.1053 25.0168 24.1053 27.8441C24.1053 30.6715 21.7106 32.9998 18.8027 32.9998ZM18.8027 23.7972C16.5219 23.7972 14.6404 25.6267 14.6404 27.8441C14.6404 30.0616 16.5219 31.8911 18.8027 31.8911C21.0834 31.8911 22.9649 30.0616 22.9649 27.8441C22.9649 25.6267 21.0834 23.7972 18.8027 23.7972Z" fill="#4F616B"/>
<path d="M20.6275 23.7421C20.2854 23.7421 20.0573 23.5203 20.0573 23.1877V9.32837C20.0573 8.66312 19.4872 8.10875 18.8029 8.10875C18.1187 8.10875 17.5486 8.66312 17.5486 9.32837V23.1877C17.5486 23.5203 17.3205 23.7421 16.9784 23.7421C16.6363 23.7421 16.4082 23.5203 16.4082 23.1877V9.32837C16.4082 8.05331 17.4915 7 18.8029 7C20.1144 7 21.1977 8.05331 21.1977 9.32837V23.1877C21.1977 23.4649 20.9696 23.7421 20.6275 23.7421Z" fill="#4F616B"/>
<path d="M25.9296 10.1039H22.6796C22.3374 10.1039 22.1094 9.88211 22.1094 9.54949C22.1094 9.21687 22.3374 8.99512 22.6796 8.99512H25.9296C26.2717 8.99512 26.4997 9.21687 26.4997 9.54949C26.4997 9.88211 26.2717 10.1039 25.9296 10.1039Z" fill="#4F616B"/>
<path d="M24.4477 13.0433H22.7372C22.3951 13.0433 22.167 12.8216 22.167 12.4889C22.167 12.1563 22.3951 11.9346 22.7372 11.9346H24.4477C24.7898 11.9346 25.0179 12.1563 25.0179 12.4889C25.0179 12.8216 24.7328 13.0433 24.4477 13.0433Z" fill="#4F616B"/>
<path d="M25.9296 15.9808H22.6796C22.3374 15.9808 22.1094 15.7591 22.1094 15.4264C22.1094 15.0938 22.3374 14.8721 22.6796 14.8721H25.9296C26.2717 14.8721 26.4997 15.0938 26.4997 15.4264C26.4997 15.7591 26.2717 15.9808 25.9296 15.9808Z" fill="#4F616B"/>
<path d="M24.4477 18.9193H22.7372C22.3951 18.9193 22.167 18.6975 22.167 18.3649C22.167 18.0323 22.3951 17.8105 22.7372 17.8105H24.4477C24.7898 17.8105 25.0179 18.0323 25.0179 18.3649C25.0179 18.6975 24.7328 18.9193 24.4477 18.9193Z" fill="#4F616B"/>
<path d="M25.9296 21.8568H22.6796C22.3374 21.8568 22.1094 21.635 22.1094 21.3024C22.1094 20.9698 22.3374 20.748 22.6796 20.748H25.9296C26.2717 20.748 26.4997 20.9698 26.4997 21.3024C26.4997 21.635 26.2717 21.8568 25.9296 21.8568Z" fill="#4F616B"/>
<circle cx="20" cy="20" r="19.5" stroke="#4F616B" stroke-opacity="0.1"/>
</svg>
