<svg width="70" height="70" viewBox="0 0 70 70" fill="none" xmlns="http://www.w3.org/2000/svg">
<path fill-rule="evenodd" clip-rule="evenodd" d="M48.7192 38.1915C48.7192 45.8613 42.7639 52.234 35.5964 52.234C28.429 52.234 22.4736 45.8613 22.4736 38.1915C22.4736 30.5217 28.429 24.1489 35.5964 24.1489C42.7639 24.1489 48.7192 30.5217 48.7192 38.1915Z" stroke="#900E0E" stroke-width="2"/>
<path fill-rule="evenodd" clip-rule="evenodd" d="M5.77231 65.0001C3.80389 65.0001 2.19336 63.2767 2.19336 61.1703V38.1916C2.19336 36.0852 3.80389 34.3618 5.77231 34.3618C7.74073 34.3618 9.35125 36.0852 9.35125 38.1916V61.1703C9.35125 63.2767 7.74073 65.0001 5.77231 65.0001Z" stroke="#900E0E" stroke-width="2" stroke-linecap="round" stroke-linejoin="round"/>
<path fill-rule="evenodd" clip-rule="evenodd" d="M65.4207 65.0001C63.4523 65.0001 61.8418 63.2767 61.8418 61.1703V38.1916C61.8418 36.0852 63.4523 34.3618 65.4207 34.3618C67.3892 34.3618 68.9997 36.0852 68.9997 38.1916V61.1703C68.9997 63.2767 67.3892 65.0001 65.4207 65.0001Z" stroke="#900E0E" stroke-width="2" stroke-linecap="round" stroke-linejoin="round"/>
<path d="M10.5439 6.27661V16.4894V20.3192C10.5439 23.1277 8.39649 25.4256 5.77193 25.4256C3.14737 25.4256 1 23.1277 1 20.3192V16.4907V6.27661" stroke="#900E0E" stroke-width="2" stroke-linecap="round" stroke-linejoin="round"/>
<path d="M5.77148 25.4254V34.3616" stroke="#900E0E" stroke-width="2" stroke-linecap="round" stroke-linejoin="round"/>
<path d="M5.77148 6.27661V25.4256" stroke="#900E0E" stroke-width="2" stroke-linecap="round" stroke-linejoin="round"/>
<path fill-rule="evenodd" clip-rule="evenodd" d="M64.2278 34.3617L63.5621 32.9357C62.4311 30.5153 61.8418 27.846 61.8418 25.1396V20.3191V17.3281C61.8418 12.7043 63.5585 8.26936 66.6137 5V34.3617H64.2278Z" stroke="#900E0E" stroke-width="2" stroke-linecap="round" stroke-linejoin="round"/>
<path fill-rule="evenodd" clip-rule="evenodd" d="M6.96507 43.298C6.96507 42.5933 6.43061 42.0214 5.77208 42.0214C5.11356 42.0214 4.5791 42.5933 4.5791 43.298C4.5791 44.0026 5.11356 44.5746 5.77208 44.5746C6.43061 44.5746 6.96507 44.0026 6.96507 43.298Z" fill="#900E0E"/>
<path fill-rule="evenodd" clip-rule="evenodd" d="M66.6145 43.298C66.6145 42.5933 66.08 42.0214 65.4215 42.0214C64.763 42.0214 64.2285 42.5933 64.2285 43.298C64.2285 44.0026 64.763 44.5746 65.4215 44.5746C66.08 44.5746 66.6145 44.0026 66.6145 43.298Z" fill="#900E0E"/>
<path fill-rule="evenodd" clip-rule="evenodd" d="M57.0704 38.1649C57.0704 25.4742 47.4562 15.1862 35.5967 15.1862C23.7373 15.1862 14.123 25.4742 14.123 38.1649C14.123 50.8555 23.7373 61.1436 35.5967 61.1436C47.4562 61.1436 57.0704 50.8555 57.0704 38.1649Z" stroke="#900E0E" stroke-width="2" stroke-linecap="round"/>
</svg>
