<svg width="30" height="30" viewBox="0 0 30 30" fill="none" xmlns="http://www.w3.org/2000/svg">
<path d="M16.3642 0C11.3022 0 6.90464 2.74692 4.56348 6.78836C5.60751 6.81993 6.58826 7.26196 7.28428 7.98816C9.18252 4.95708 12.5361 2.96793 16.3326 2.96793C22.2487 2.96793 27.026 7.76714 27.026 13.6399C27.026 17.4603 25.0012 20.8387 21.964 22.7015C22.5018 23.2067 22.8815 23.8382 23.0713 24.5328C23.1346 24.817 23.1662 25.1327 23.1978 25.4169C27.2791 23.0488 29.9999 18.6601 29.9999 13.6399C30.0631 6.12531 23.9255 0 16.3642 0Z" fill="#900E0E"/>
<path d="M21.932 9.62937C21.3626 9.06104 20.4135 9.06104 19.8123 9.62937L15.5097 13.9234L13.5165 11.9343C12.9471 11.3659 11.9979 11.3659 11.3968 11.9343C10.8274 12.5026 10.8274 13.4498 11.3968 14.0497L14.4656 17.1124C14.7504 17.3965 15.13 17.5544 15.5097 17.5544C15.8893 17.5544 16.269 17.3965 16.5537 17.1124L21.932 11.7448C22.5015 11.1449 22.5015 10.2293 21.932 9.62937Z" fill="#900E0E"/>
<path d="M19.9389 24.3104L15.6995 22.1318C15.0983 21.8161 14.3707 21.974 13.9594 22.5107L12.4092 24.4999C10.8906 23.6789 9.75165 22.9212 8.42288 21.5951C6.9992 20.1743 6.23991 19.006 5.48061 17.5536L7.44212 16.0065C7.97996 15.5961 8.13814 14.8699 7.82177 14.27L5.6388 10.0707C5.25915 9.34446 4.31003 9.09187 3.61401 9.56547L0.924841 11.3652C0.292095 11.7756 -0.055915 12.5018 0.00735956 13.2596C0.0706342 14.0174 0.165546 14.9962 0.323733 15.6592C1.11466 18.6271 3.0129 21.7529 5.6388 24.3736C8.29633 26.9942 11.3968 28.8886 14.4023 29.678C15.0667 29.8674 16.0475 29.9621 16.8068 29.9937C17.5661 30.0568 18.2937 29.678 18.705 29.0465L20.4451 26.3311C20.9196 25.6365 20.6665 24.6893 19.9389 24.3104Z" fill="#900E0E"/>
</svg>
