<svg width="40" height="40" viewBox="0 0 40 40" fill="none" xmlns="http://www.w3.org/2000/svg">
<circle cx="20" cy="20" r="19.5" stroke="#4F616B" stroke-opacity="0.1"/>
<path d="M31.0071 24.4804H9.04762C8.88333 24.4804 8.77381 24.4251 8.66429 24.3144C8.55476 24.2038 8.5 24.0378 8.5 23.9272C8.66429 17.676 13.8119 12.5312 20 12.5312C26.1881 12.5312 31.3905 17.6207 31.5 23.9272C31.5 24.0931 31.4452 24.2038 31.3357 24.3144C31.281 24.4251 31.1167 24.4804 31.0071 24.4804ZM9.65 23.374H30.4595C30.0214 17.9526 25.4762 13.6377 20.0548 13.6377C14.6333 13.6377 10.0333 17.9526 9.65 23.374Z" fill="#4F616B"/>
<path d="M23.0118 13.6389C22.6832 13.6389 22.4642 13.4176 22.4642 13.0857V11.4814H17.5904V13.0857C17.5904 13.4176 17.3713 13.6389 17.0427 13.6389C16.7142 13.6389 16.4951 13.4176 16.4951 13.0857V10.9282C16.4951 10.5963 16.7142 10.375 17.0427 10.375H23.0118C23.3404 10.375 23.5594 10.5963 23.5594 10.9282V13.0857C23.5594 13.4176 23.2856 13.6389 23.0118 13.6389Z" fill="#4F616B"/>
<path d="M19.9998 11.4809C19.6712 11.4809 19.4521 11.2596 19.4521 10.9277V7.5532C19.4521 7.22128 19.6712 7 19.9998 7H25.3906C25.7191 7 26.1949 7.22128 26.1949 7.5532C26.1949 7.88512 25.7191 8.1064 25.3906 8.1064H20.5474V10.9277C20.5474 11.2043 20.3283 11.4809 19.9998 11.4809Z" fill="#4F616B"/>
<path d="M11.4568 29.4594C11.1282 29.4594 10.9092 29.2381 10.9092 28.9062V26.3061C10.9092 25.9742 11.1282 25.7529 11.4568 25.7529C11.7854 25.7529 12.0044 25.9742 12.0044 26.3061V28.9062C12.0044 29.2381 11.7306 29.4594 11.4568 29.4594Z" fill="#4F616B"/>
<path d="M17.1521 29.4594C16.8235 29.4594 16.6045 29.2381 16.6045 28.9062V26.3061C16.6045 25.9742 16.8235 25.7529 17.1521 25.7529C17.4807 25.7529 17.6997 25.9742 17.6997 26.3061V28.9062C17.6997 29.2381 17.4807 29.4594 17.1521 29.4594Z" fill="#4F616B"/>
<path d="M22.8474 29.4594C22.5189 29.4594 22.2998 29.2381 22.2998 28.9062V26.3061C22.2998 25.9742 22.5189 25.7529 22.8474 25.7529C23.176 25.7529 23.395 25.9742 23.395 26.3061V28.9062C23.395 29.2381 23.176 29.4594 22.8474 29.4594Z" fill="#4F616B"/>
<path d="M28.5974 29.4594C28.2689 29.4594 28.0498 29.2381 28.0498 28.9062V26.3061C28.0498 25.9742 28.2689 25.7529 28.5974 25.7529C28.926 25.7529 29.145 25.9742 29.145 26.3061V28.9062C29.145 29.2381 28.8712 29.4594 28.5974 29.4594Z" fill="#4F616B"/>
<path d="M14.3045 32.9994C13.9759 32.9994 13.7568 32.7781 13.7568 32.4462V29.8462C13.7568 29.5142 13.9759 29.293 14.3045 29.293C14.633 29.293 14.8521 29.5142 14.8521 29.8462V32.4462C14.8521 32.7781 14.633 32.9994 14.3045 32.9994Z" fill="#4F616B"/>
<path d="M19.9998 32.9994C19.6712 32.9994 19.4521 32.7781 19.4521 32.4462V29.8462C19.4521 29.5142 19.6712 29.293 19.9998 29.293C20.3283 29.293 20.5474 29.5142 20.5474 29.8462V32.4462C20.5474 32.7781 20.3283 32.9994 19.9998 32.9994Z" fill="#4F616B"/>
<path d="M25.7498 32.9994C25.4212 32.9994 25.2021 32.7781 25.2021 32.4462V29.8462C25.2021 29.5142 25.4212 29.293 25.7498 29.293C26.0783 29.293 26.2974 29.5142 26.2974 29.8462V32.4462C26.2974 32.7781 26.0236 32.9994 25.7498 32.9994Z" fill="#4F616B"/>
</svg>
