<svg width="40" height="40" viewBox="0 0 40 40" fill="none" xmlns="http://www.w3.org/2000/svg">
<circle cx="20" cy="20" r="19.5" stroke="#4F616B" stroke-opacity="0.1"/>
<path d="M31.9518 27.1895H8.04825C7.7193 27.1895 7.5 26.9692 7.5 26.6386V10.5509C7.5 10.2204 7.7193 10 8.04825 10H31.9518C32.2807 10 32.5 10.2204 32.5 10.5509V26.5835C32.5 26.9141 32.2259 27.1895 31.9518 27.1895ZM8.59649 26.0876H31.4035V11.1019H8.59649V26.0876Z" fill="#4F616B"/>
<path d="M31.9518 23.6087H8.04825C7.7193 23.6087 7.5 23.3884 7.5 23.0578C7.5 22.7272 7.7193 22.5068 8.04825 22.5068H31.9518C32.2807 22.5068 32.5 22.7272 32.5 23.0578C32.5 23.3884 32.2259 23.6087 31.9518 23.6087Z" fill="#4F616B"/>
<path d="M20.0004 29.9996C19.6714 29.9996 19.4521 29.7792 19.4521 29.4487V26.6388C19.4521 26.3083 19.6714 26.0879 20.0004 26.0879C20.3293 26.0879 20.5486 26.3083 20.5486 26.6388V29.4487C20.5486 29.7241 20.3293 29.9996 20.0004 29.9996Z" fill="#4F616B"/>
<path d="M23.9479 29.9994H16.0531C15.7242 29.9994 15.5049 29.779 15.5049 29.4484C15.5049 29.1178 15.7242 28.8975 16.0531 28.8975H24.0027C24.3316 28.8975 24.5509 29.1178 24.5509 29.4484C24.5509 29.779 24.2768 29.9994 23.9479 29.9994Z" fill="#4F616B"/>
</svg>
