<svg width="40" height="40" viewBox="0 0 40 40" fill="none" xmlns="http://www.w3.org/2000/svg">
<circle cx="20" cy="20" r="19.5" stroke="#4F616B" stroke-opacity="0.1"/>
<path d="M20 33C15.0714 33 11 28.8577 11 23.7212C11 18.8056 19.1964 7.7042 19.5714 7.20712C19.7857 6.93096 20.2143 6.93096 20.4286 7.20712C20.8036 7.7042 29 18.7504 29 23.7212C29 28.8577 24.9286 33 20 33ZM20 8.53266C18.2857 10.8524 12.125 19.7998 12.125 23.7212C12.125 28.1949 15.6607 31.8954 20.0536 31.8954C24.4464 31.8954 27.9821 28.2501 27.9821 23.7212C27.9286 19.7998 21.7143 10.8524 20 8.53266Z" fill="#4F616B"/>
</svg>
