<svg width="26" height="20" viewBox="0 0 26 20" fill="none" xmlns="http://www.w3.org/2000/svg">
<path d="M1.03191 6.04297C0.87234 6.04297 0.765957 5.98949 0.659574 5.88254C0.446809 5.66863 0.446809 5.34776 0.659574 5.13385C3.95745 1.81824 8.31915 0 13 0C17.6809 0 22.0426 1.81824 25.3404 5.13385C25.5532 5.34776 25.5532 5.66863 25.3404 5.88254C25.1277 6.09645 24.8085 6.09645 24.5957 5.88254C21.5106 2.78084 17.3617 1.06955 13 1.06955C8.6383 1.06955 4.48936 2.78084 1.40426 5.88254C1.29787 5.98949 1.19149 6.04297 1.03191 6.04297Z" fill="#4F616B"/>
<path d="M21.4039 9.67939C21.2443 9.67939 21.1379 9.62591 21.0316 9.51895C18.9039 7.37985 16.0316 6.20334 12.9996 6.20334C9.96773 6.20334 7.14858 7.37985 4.96773 9.51895C4.75497 9.73286 4.43582 9.73286 4.22305 9.51895C4.01029 9.30504 4.01029 8.98418 4.22305 8.77027C6.56348 6.41725 9.70177 5.13379 12.9996 5.13379C16.2975 5.13379 19.4358 6.41725 21.7762 8.77027C21.989 8.98418 21.989 9.30504 21.7762 9.51895C21.6699 9.62591 21.5103 9.67939 21.4039 9.67939Z" fill="#4F616B"/>
<path d="M18.1065 12.9404C17.9469 12.9404 17.8405 12.8869 17.7341 12.78C15.1277 10.1596 10.8724 10.1596 8.21285 12.78C8.00008 12.9939 7.68093 12.9939 7.46817 12.78C7.2554 12.5661 7.2554 12.2452 7.46817 12.0313C10.5001 8.98306 15.4469 8.98306 18.4788 12.0313C18.6916 12.2452 18.6916 12.5661 18.4788 12.78C18.4256 12.8869 18.266 12.9404 18.1065 12.9404Z" fill="#4F616B"/>
<path d="M12.9996 20C11.723 20 10.6592 18.9304 10.6592 17.647C10.6592 16.3635 11.723 15.2939 12.9996 15.2939C14.2762 15.2939 15.34 16.3635 15.34 17.647C15.34 18.9304 14.2762 20 12.9996 20ZM12.9996 16.3635C12.3081 16.3635 11.723 16.9518 11.723 17.647C11.723 18.3422 12.3081 18.9304 12.9996 18.9304C13.6911 18.9304 14.2762 18.3422 14.2762 17.647C14.2762 16.9518 13.6911 16.3635 12.9996 16.3635Z" fill="#4F616B"/>
</svg>
