<svg width="26" height="26" viewBox="0 0 26 26" fill="none" xmlns="http://www.w3.org/2000/svg">
<circle cx="13" cy="13" r="12.5" stroke="black" stroke-opacity="0.1"/>
<g clip-path="url(#clip0)">
<path fill-rule="evenodd" clip-rule="evenodd" d="M12.7737 19.9291L13 19.6114L12.7737 19.9291ZM13.2263 19.9291L13.2279 19.9283L13.2318 19.9256L13.2436 19.9167L13.2899 19.8836C13.3292 19.8548 13.3866 19.8128 13.4589 19.7576C13.6034 19.648 13.8085 19.4866 14.0532 19.2793C14.6957 18.7357 15.2965 18.1455 15.8506 17.5137C17.1501 16.0258 18.5 13.902 18.5 11.4741C18.5 10.0235 17.9209 8.63128 16.8901 7.60459C16.3805 7.09645 15.7745 6.69309 15.1069 6.4177C14.4393 6.14232 13.7233 6.00036 13 6C12.2768 6.00031 11.5607 6.14221 10.8931 6.41753C10.2255 6.69284 9.61948 7.09613 9.10993 7.6042C8.07806 8.63324 7.49931 10.0246 7.5 11.4745C7.5 13.902 8.84986 16.0258 10.1494 17.5137C10.7035 18.1455 11.3043 18.7357 11.9468 19.2793C12.1919 19.4866 12.3966 19.648 12.5411 19.7576C12.6121 19.8117 12.6837 19.8649 12.756 19.9171L12.7686 19.9256L12.7721 19.9283L12.7737 19.9291C12.9093 20.0236 13.0908 20.0236 13.2263 19.9291ZM13 19.6114L13.2263 19.9291L13 19.6114ZM14.9643 11.4446C14.9643 11.9603 14.7573 12.4549 14.389 12.8195C14.0206 13.1842 13.521 13.389 13 13.389C12.479 13.389 11.9794 13.1842 11.611 12.8195C11.2427 12.4549 11.0357 11.9603 11.0357 11.4446C11.0357 10.9288 11.2427 10.4343 11.611 10.0696C11.9794 9.70494 12.479 9.50007 13 9.50007C13.521 9.50007 14.0206 9.70494 14.389 10.0696C14.7573 10.4343 14.9643 10.9288 14.9643 11.4446Z" fill="#50616B"/>
</g>
<defs>
<clipPath id="clip0">
<rect width="14" height="14" fill="white" transform="translate(6 6)"/>
</clipPath>
</defs>
</svg>
