<svg width="11" height="14" viewBox="0 0 11 14" fill="none" xmlns="http://www.w3.org/2000/svg">
<path fill-rule="evenodd" clip-rule="evenodd" d="M9.15234 7.62697C8.22768 8.55678 7.34706 9.44232 6.59853 10.195C6.59853 7.22848 6.55449 2.71224 6.55449 0.941169C6.55449 -0.342859 4.39696 -0.298582 4.39696 0.985445C4.39696 2.93363 4.39696 7.27275 4.39696 10.1507C3.16409 8.911 2.1954 7.93691 1.84315 7.58269C0.962529 6.69715 -0.622594 8.29112 0.25803 9.17666C0.566249 9.4866 2.67975 11.5233 4.48503 13.3387C4.57309 13.5601 4.74922 13.6929 4.96937 13.7814C5.10146 13.87 5.23356 13.9143 5.36565 13.9586C5.67387 14.0471 5.98209 14.0028 6.24628 13.7372C6.59853 13.383 8.88815 10.992 10.7375 9.13238C11.6181 8.20257 10.077 6.69716 9.15234 7.62697Z" fill="white"/>
</svg>
